<svg xmlns="http://www.w3.org/2000/svg" width="33.75" height="27" viewBox="0 0 33.75 27">
  <path id="compare" d="M13.5,17.719h0c0-.853.071-.46-4.485-9.572a2.533,2.533,0,0,0-4.528,0C-.109,17.336,0,16.892,0,17.719H0c0,2.33,3.022,4.219,6.75,4.219S13.5,20.049,13.5,17.719ZM6.75,9.281l3.8,7.594H2.953Zm27,8.438c0-.853.071-.46-4.485-9.572a2.533,2.533,0,0,0-4.528,0c-4.594,9.189-4.485,8.745-4.485,9.572h0c0,2.33,3.022,4.219,6.75,4.219s6.75-1.889,6.75-4.219ZM23.2,16.875,27,9.281l3.8,7.594Zm4.641,6.75H18.562V8.082a4.222,4.222,0,0,0,2.446-3.019h6.835a.844.844,0,0,0,.844-.844V2.531a.844.844,0,0,0-.844-.844H20.231a4.181,4.181,0,0,0-6.712,0H5.906a.844.844,0,0,0-.844.844V4.219a.844.844,0,0,0,.844.844h6.835a4.222,4.222,0,0,0,2.446,3.019V23.625H5.906a.844.844,0,0,0-.844.844v1.688A.844.844,0,0,0,5.906,27H27.844a.844.844,0,0,0,.844-.844V24.469A.844.844,0,0,0,27.844,23.625Z" fill="#b3b3b3"/>
</svg>
